<svg xmlns="http://www.w3.org/2000/svg" viewBox="0 0 64 64"><g id="SVGRepo_iconCarrier"><defs><style>.cls-1{fill:#e5936b}.cls-2{fill:#e17c46}.cls-3{fill:#f6e782}.cls-4{fill:#94d8e5}.cls-5{fill:#748a95}.cls-6{fill:#efc89d}.cls-7{fill:#ebb87f}.cls-8{fill:#252b48}</style></defs><g id="Book_Rack" data-name="Book Rack"><path id="path193798-5" d="M20.35 8a3 3 0 0 0-3 3v28.83L32 43.72l14.65-3.89V11a3 3 0 0 0-3-3Z" class="cls-1"/><path id="path210887" d="M46.65 39.83V11a3 3 0 0 0-3-3H40.4a3 3 0 0 1 3 3v28.83Z" class="cls-2"/><path id="path195250-2" d="M44.79 32.78a1.86 1.86 0 0 1 1.87 1.86V38a1.87 1.87 0 0 1-3.73 0v-3.36a1.86 1.86 0 0 1 1.86-1.86Z" class="cls-3"/><path id="path195252-5" d="M41.07 32.78a1.86 1.86 0 0 1 1.86 1.86V38a1.86 1.86 0 0 1-3.72 0v-3.36a1.86 1.86 0 0 1 1.86-1.86Z" class="cls-4"/><path id="path218498-8" d="M22.93 32.78a1.86 1.86 0 0 1 1.86 1.86V38a1.86 1.86 0 0 1-3.72 0v-3.36a1.86 1.86 0 0 1 1.86-1.86Z" class="cls-4"/><path id="path218500-6" d="M19.21 32.78a1.86 1.86 0 0 1 1.86 1.86V38a1.86 1.86 0 0 1-3.72 0v-3.36a1.86 1.86 0 0 1 1.86-1.86Z" class="cls-3"/><path id="path218502-8" d="M41.07 21.38a1.86 1.86 0 0 0-1.86 1.86v3.33a1.86 1.86 0 0 0 3.72 0v-3.33a1.86 1.86 0 0 0-1.86-1.86Z" class="cls-4"/><path id="path218504-8" d="M44.79 21.38a1.86 1.86 0 0 0-1.86 1.86v3.33a1.87 1.87 0 0 0 3.73 0v-3.33a1.86 1.86 0 0 0-1.87-1.86Z" class="cls-3"/><path id="path218719-4" d="M34.94 23.69a1.85 1.85 0 0 0-2.63 0L30 26a1.86 1.86 0 0 0 2.63 2.64l2.35-2.36a1.85 1.85 0 0 0-.04-2.59Z" class="cls-4"/><path id="path218721-3" d="M37.35 21.38a1.86 1.86 0 0 0-1.86 1.86v3.33a1.86 1.86 0 0 0 3.72 0v-3.33a1.86 1.86 0 0 0-1.86-1.86Z" class="cls-3"/><path id="path219330-1" d="M35 10.77a1.86 1.86 0 0 1 1.86 1.86V16a1.86 1.86 0 0 1-3.72 0v-3.37A1.86 1.86 0 0 1 35 10.77Z" class="cls-3"/><path id="path219332-4" d="M41.12 13.08a1.85 1.85 0 0 1 2.63 0l2.36 2.35a1.86 1.86 0 1 1-2.63 2.63l-2.36-2.35a1.85 1.85 0 0 1 0-2.63Z" class="cls-3"/><path id="path219334-9" d="M38.71 10.77a1.86 1.86 0 0 1 1.87 1.86V16a1.87 1.87 0 0 1-3.73 0v-3.37a1.86 1.86 0 0 1 1.86-1.86Z" class="cls-4"/><path id="path191561-6" d="M21.94 50.62 21.28 54a2.12 2.12 0 0 1-2 2 2 2 0 0 1-2-2v-3.38l2.29-1.7Z" class="cls-5"/><path id="path192513-6" d="m42.06 50.62.66 3.38a2.13 2.13 0 0 0 2 2 2 2 0 0 0 2-2v-3.38l-2.3-1.7Z" class="cls-5"/><path id="path189567" d="M17.34 39.83v10.79h29.31V39.83Z" class="cls-6"/><path id="path210889" d="M43.4 39.83v10.79h3.25V39.83Z" class="cls-7"/><path d="m22.27 54.22.5-2.6h18.46l.51 2.6A3.08 3.08 0 0 0 44.69 57a3 3 0 0 0 3-3V11a4 4 0 0 0-4-4H20.35a4 4 0 0 0-4 4v43a3 3 0 0 0 3 3 3.1 3.1 0 0 0 2.92-2.78Zm19-37 .36.36H41a2.12 2.12 0 0 0 .25-.33ZM33 49.62v-8.79h12.66v8.79ZM40.21 38v-3.36a.86.86 0 0 1 1.72 0V38a.86.86 0 0 1-1.72 0Zm5.45 0a.86.86 0 0 1-.87.86.85.85 0 0 1-.86-.86v-3.36a.85.85 0 0 1 .86-.86.87.87 0 0 1 .87.86ZM30.41 27.36a.88.88 0 0 1 .25-.61L33 24.4a.86.86 0 0 1 1.22 1.21L31.88 28a.86.86 0 0 1-1.47-.61Zm4.4.51a4.05 4.05 0 0 0 .21.35h-.56Zm10.85-1.3a.87.87 0 0 1-1.73 0v-3.33a.87.87 0 0 1 1.73 0Zm-3.73 0a.86.86 0 0 1-1.72 0v-3.33a.86.86 0 0 1 1.72 0Zm-3.72 0a.86.86 0 0 1-1.72 0v-3.33a.87.87 0 0 1 .86-.86.85.85 0 0 1 .86.86Zm7.19-9.21a.89.89 0 0 1-1.22 0L41.83 15a.83.83 0 0 1-.25-.6.82.82 0 0 1 .25-.6.83.83 0 0 1 .61-.26.85.85 0 0 1 .61.26l2.35 2.35a.83.83 0 0 1 .26.61.85.85 0 0 1-.26.6ZM39.58 16a.87.87 0 0 1-1.73 0v-3.37a.87.87 0 0 1 1.73 0Zm-3.73 0a.86.86 0 0 1-1.72 0v-3.37a.86.86 0 1 1 1.72 0Zm9.81 3.65v.92a2.79 2.79 0 0 0-.87-.15 2.83 2.83 0 0 0-1.86.71 2.79 2.79 0 0 0-3.72 0 2.81 2.81 0 0 0-1.86-.71 2.86 2.86 0 0 0-2.7 2 2.88 2.88 0 0 0-3 .64l-2.35 2.36a2.85 2.85 0 0 0-.84 2 2.72 2.72 0 0 0 .15.86H18.35v-8.67ZM18.35 30.22h27.31v1.71a2.79 2.79 0 0 0-.87-.15 2.83 2.83 0 0 0-1.86.71 2.79 2.79 0 0 0-1.86-.71 2.87 2.87 0 0 0-2.86 2.86V38a2.68 2.68 0 0 0 .15.86H25.64a2.68 2.68 0 0 0 .15-.86v-3.36a2.87 2.87 0 0 0-2.86-2.86 2.79 2.79 0 0 0-1.86.71 2.81 2.81 0 0 0-1.86-.71 2.68 2.68 0 0 0-.86.15Zm0 7.75v-3.33a.86.86 0 0 1 1.72 0V38a.86.86 0 0 1-1.72 0Zm3.72 0v-3.33a.86.86 0 0 1 1.72 0V38a.86.86 0 0 1-1.72 0Zm-3.72 2.86H31v8.79H18.35ZM44.69 55c-.71 0-.94-.89-1-1.16l-.43-2.22h2.39V54a1 1 0 0 1-.96 1ZM20.35 9h23.3a2 2 0 0 1 2 2v2.56l-1.2-1.2a2.94 2.94 0 0 0-3-.63 2.84 2.84 0 0 0-4.57-1.27 2.85 2.85 0 0 0-4.72 2.16V16a2.85 2.85 0 0 0 .53 1.65H18.35V11a2 2 0 0 1 2-2Zm-2 45v-2.38h2.38l-.43 2.22c-.05.27-.28 1.16-1 1.16a1 1 0 0 1-.95-1Z" class="cls-8"/><path d="M26 44.41h-2.68a1 1 0 1 0 0 2H26a1 1 0 0 0 0-2Zm14.68 0H38a1 1 0 0 0 0 2h2.71a1 1 0 1 0 0-2Z" class="cls-8"/></g></g></svg>